<svg width="256" height="256" viewBox="0 0 256 256" fill="none" xmlns="http://www.w3.org/2000/svg">
<rect width="256" height="256" rx="60" fill="#025333"/>
<path d="M128 178C100.386 178 78 155.614 78 128C78 100.386 100.386 78 128 78C140.733 78 152.338 82.763 161.166 90.6212L161.166 60L186 60L186 178L161.166 178L161.166 165.379C152.338 173.237 140.733 178 128 178ZM132 153.167C145.9 153.167 157.166 141.9 157.166 128C157.166 114.1 145.9 102.833 132 102.833C118.1 102.833 106.834 114.1 106.834 128C106.834 141.9 118.1 153.167 132 153.167Z" fill="white"/>
</svg>
