<svg width="20" height="16" viewBox="0 0 20 16" fill="none" xmlns="http://www.w3.org/2000/svg">
<g filter="url(#filter0_i_294_4309)">
<path d="M19 0C19.5523 0 20 0.447846 20 1.00029V9.00263C20 9.55507 19.5523 10.0029 19 10.0029H17V15.0044C17 15.3325 16.8392 15.6397 16.5696 15.8265C16.0001 16.2213 15.3938 15.8578 14.8847 15.5714C14.4567 15.3306 13.8873 14.957 13.3161 14.4212C12.1618 13.3388 11 11.5887 11 9.00263V1.00029C11 0.447846 11.4477 0 12 0H19Z" fill="#5F5F5F"/>
<path d="M8 0C8.55229 0 9 0.447846 9 1.00029V9.00263C9 9.55507 8.55229 10.0029 8 10.0029H6V15.0044C6 15.3325 5.83917 15.6397 5.56959 15.8265C5.00012 16.2213 4.39378 15.8578 3.88474 15.5714C3.45666 15.3306 2.88734 14.957 2.31606 14.4212C1.16181 13.3388 0 11.5887 0 9.00263V1.00029C0 0.447846 0.447716 0 1 0H8Z" fill="#5F5F5F"/>
</g>
<defs>
<filter id="filter0_i_294_4309" x="0" y="0" width="20" height="16" filterUnits="userSpaceOnUse" color-interpolation-filters="sRGB">
<feFlood flood-opacity="0" result="BackgroundImageFix"/>
<feBlend mode="normal" in="SourceGraphic" in2="BackgroundImageFix" result="shape"/>
<feColorMatrix in="SourceAlpha" type="matrix" values="0 0 0 0 0 0 0 0 0 0 0 0 0 0 0 0 0 0 127 0" result="hardAlpha"/>
<feOffset dy="1"/>
<feComposite in2="hardAlpha" operator="arithmetic" k2="-1" k3="1"/>
<feColorMatrix type="matrix" values="0 0 0 0 1 0 0 0 0 1 0 0 0 0 1 0 0 0 0.08 0"/>
<feBlend mode="normal" in2="shape" result="effect1_innerShadow_294_4309"/>
</filter>
</defs>
</svg>
